{"title":"The Crazies (PSP + Ipod touch + Zune)","uid":5634765,"size":401543266,"categoryP":"video","categoryS":"handheld","magnet":"?xt=urn:btih:8c6b1ce795ca3ed6b37c30865df773140ad85d9a&amp;dn=The+Crazies+%28PSP+%2B+Ipod+touch+%2B+Zune%29&amp;tr=udp%3A%2F%2Ftracker.openbittorrent.com%3A80&amp;tr=udp%3A%2F%2Fopen.demonii.com%3A1337&amp;tr=udp%3A%2F%2Ftracker.coppersurfer.tk%3A6969&amp;tr=udp%3A%2F%2Fexodus.desync.com%3A6969","seeders":0,"leechers":0,"uploader":"on.off.on","files":-1,"time":1276838537,"description":"The Crazies\n\nsource:\n\nThe.Crazies.2010.BDRip.XviD-SAiNTS\n &lt;a href=&quot;\nhttp://www.imdb.com/title/tt0455407/&quot; rel=&quot;nofollow&quot; target=&quot;_NEW&quot;&gt;\nhttp://www.imdb.com/title/tt0455407/&lt;/a&gt;\n\nAbout the inhabitants of a small Iowa town suddenly plagued by insanity and then death after a mysterious toxin contaminates their water \n\nsupply\n\nID                               : 1\nFormat                           : AVC\nFormat/Info                      : Advanced Video Codec\nFormat profile                   : &lt;a class=&quot;__cf_email__&quot; href=&quot;/cdn-cgi/l/email-protection&quot; data-cfemail=&quot;7d3f1c0e18111413183d314f534d&quot;&gt;[email&amp;#160;protected]&lt;/a&gt;&lt;script cf-hash='f9e31' type=&quot;text/javascript&quot;&gt;\n/* &lt;![CDATA[ */!function(){try{var t=&quot;currentScript&quot;in document?document.currentScript:function(){for(var t=document.getElementsByTagName(&quot;script&quot;),e=t.length;e--;)if(t[e].getAttribute(&quot;cf-hash&quot;))return t[e]}();if(t&amp;&amp;t.previousSibling){var e,r,n,i,c=t.previousSibling,a=c.getAttribute(&quot;data-cfemail&quot;);if(a){for(e=&quot;&quot;,r=parseInt(a.substr(0,2),16),n=2;a.length-n;n+=2)i=parseInt(a.substr(n,2),16)^r,e+=String.fromCharCode(i);e=document.createTextNode(e),c.parentNode.replaceChild(e,c)}}}catch(u){}}();/* ]]&gt; */&lt;/script&gt;\nFormat settings, CABAC           : No\nFormat settings, ReFrames        : 3 frames\nCodec ID                         : avc1\nCodec ID/Info                    : Advanced Video Coding\nDuration                         : 1h 40mn\nBit rate mode                    : Variable\nBit rate                         : 400 Kbps\nWidth                            : 480 pixels\nHeight                           : 208 pixels\nDisplay aspect ratio             : 2.35:1\nFrame rate mode                  : Variable\nFrame rate                       : 23.958 fps\nMinimum frame rate               : 11.987 fps\nMaximum frame rate               : 23.981 fps\nColor space                      : YUV\nChroma subsampling               : 4:2:0\nBit depth                        : 8 bits\nScan type                        : Progressive\nBits/(Pixel*Frame)               : 0.167\nStream size                      : 288 MiB (75%)\nWriting library                  : x264 core 79\n\nID                               : 2\nFormat                           : AAC\nFormat/Info                      : Advanced Audio Codec\nFormat version                   : Version 4\nFormat profile                   : LC\nFormat settings, SBR             : No\nCodec ID                         : 40\nDuration                         : 1h 40mn\nBit rate mode                    : Variable\nBit rate                         : 128 Kbps\nMaximum bit rate                 : 214 Kbps\nChannel(s)                       : 2 channels\nChannel positions                : Front: L R\nSampling rate                    : 48.0 KHz\nStream size                      : 92.2 MiB (24%)\n &lt;a href=&quot;\nhttp://img10.imageshack.us/img10/2672/vlcsnap00001g.png&quot; rel=&quot;nofollow&quot; target=&quot;_NEW&quot;&gt;\nhttp://img10.imageshack.us/img10/2672/vlcsnap00001g.png&lt;/a&gt; &lt;a href=&quot;\nhttp://img691.imageshack.us/img691/1331/vlcsnap00002fb.png&quot; rel=&quot;nofollow&quot; target=&quot;_NEW&quot;&gt;\nhttp://img691.imageshack.us/img691/1331/vlcsnap00002fb.png&lt;/a&gt; &lt;a href=&quot;\nhttp://img163.imageshack.us/img163/8594/vlcsnap00003xk.png&quot; rel=&quot;nofollow&quot; target=&quot;_NEW&quot;&gt;\nhttp://img163.imageshack.us/img163/8594/vlcsnap00003xk.png&lt;/a&gt; &lt;a href=&quot;\nhttp://img194.imageshack.us/img194/2733/vlcsnap00004b.png&quot; rel=&quot;nofollow&quot; target=&quot;_NEW&quot;&gt;\nhttp://img194.imageshack.us/img194/2733/vlcsnap00004b.png&lt;/a&gt; &lt;a href=&quot;\nhttp://img99.imageshack.us/img99/4237/vlcsnap00005g.png&quot; rel=&quot;nofollow&quot; target=&quot;_NEW&quot;&gt;\nhttp://img99.imageshack.us/img99/4237/vlcsnap00005g.png&lt;/a&gt; &lt;a href=&quot;\nhttp://img823.imageshack.us/img823/6751/vlcsnap00006x.png&quot; rel=&quot;nofollow&quot; target=&quot;_NEW&quot;&gt;\nhttp://img823.imageshack.us/img823/6751/vlcsnap00006x.png&lt;/a&gt; &lt;a href=&quot;\nhttp://img340.imageshack.us/img340/8072/vlcsnap00007h.png&quot; rel=&quot;nofollow&quot; target=&quot;_NEW&quot;&gt;\nhttp://img340.imageshack.us/img340/8072/vlcsnap00007h.png&lt;/a&gt; &lt;a href=&quot;\nhttp://img248.imageshack.us/img248/2072/vlcsnap00008b.png&quot; rel=&quot;nofollow&quot; target=&quot;_NEW&quot;&gt;\nhttp://img248.imageshack.us/img248/2072/vlcsnap00008b.png&lt;/a&gt;\n\n\nPLEASE LET THE TORRENT SEED AND SHARE IT WITH ALL YOU KNOW!\n\nLet me know what I can do to be your trusted source of Handheld videos.\n\n-OOO (on.off.on)\n\n\n\n","torrent":{"xt":"urn:btih:8c6b1ce795ca3ed6b37c30865df773140ad85d9a","amp;dn":"The+Crazies+%28PSP+%2B+Ipod+touch+%2B+Zune%29","amp;tr":["udp%3A%2F%2Ftracker.openbittorrent.com%3A80","udp%3A%2F%2Fopen.demonii.com%3A1337","udp%3A%2F%2Ftracker.coppersurfer.tk%3A6969","udp%3A%2F%2Fexodus.desync.com%3A6969"],"infoHash":"8c6b1ce795ca3ed6b37c30865df773140ad85d9a","infoHashBuffer":{"type":"Buffer","data":[140,107,28,231,149,202,62,214,179,124,48,134,93,247,115,20,10,216,93,154]},"announce":[],"urlList":[]}}